<svg width="40" height="40" viewBox="0 0 40 40" fill="none" xmlns="http://www.w3.org/2000/svg">
<rect width="40" height="40" rx="3.50877" fill="#FFDC14"/>
<path d="M0 3.50877C0 1.57093 1.57093 0 3.50877 0H36.4912C38.4291 0 40 1.57093 40 3.50877V36.4912C40 38.4291 38.4291 40 36.4912 40H3.50877C1.57093 40 0 38.4291 0 36.4912V3.50877Z" fill="#FFDC14"/>
<path d="M24.9316 19.2045C24.3571 19.5988 23.7319 19.8304 23.056 19.9032C22.5508 19.9575 22.3002 20.1705 22.3068 20.676C22.3068 20.762 22.2935 20.8547 22.2602 20.9328C22.2135 21.0369 22.0748 21.0682 22.0602 20.9328C22.0375 20.6629 22.1513 20.0119 21.7043 20.2062C21.6243 20.2407 21.527 20.2711 21.475 20.3346C21.1857 20.6826 20.9804 20.5238 20.7325 20.2671C20.6152 20.1454 20.3899 20.0501 20.2232 20.0633C19.7873 20.0991 19.5207 19.8953 19.2861 19.5763C18.8447 18.9743 18.2974 19.5224 17.889 19.931C17.6078 20.2102 17.6398 20.4339 17.9637 20.68C18.1303 20.807 18.4503 20.9195 18.3036 21.1498C18.0986 21.4712 17.7399 20.948 17.5011 20.9169C17.2878 20.8891 17.0719 20.8878 16.8559 20.8759C16.5328 22.5356 18.1034 23.1518 19.5423 23.2004C19.6113 23.2028 19.6457 23.2873 19.5967 23.336C17.5011 23.5345 16.4864 22.2727 15.9081 21.2676C15.6852 21.6881 15.3587 23.5792 16.2987 23.3558C17.3666 23.1028 18.1907 24.3937 18.8262 25.0682C18.9811 25.2297 18.8977 25.3526 18.6902 25.3382C18.3143 25.3117 18.0757 25.4784 17.9077 25.808C17.6198 26.3717 17.6171 26.3651 18.2343 26.4763C18.6822 26.557 19.1315 26.6351 19.4274 27.0612C19.9673 27.8413 21.0705 27.2257 21.4923 28.1979C21.72 28.7265 21.4475 29.2282 20.7671 29.1388C18.2343 28.8062 16.5375 29.7272 14.3764 29.5517C13.9258 29.5147 13.4619 29.6033 13.0074 29.6629C11.9443 29.8004 11.3253 28.0581 12.2888 28.2442C12.6248 28.3078 12.8394 28.194 13.0553 27.9862C13.306 27.744 13.6166 27.7599 13.9272 27.8128C14.1758 27.8547 14.6551 28.028 14.7923 27.6712C14.9397 27.2889 14.2505 27.055 14.0378 26.9209C13.8205 26.7846 13.7819 26.5742 14.0325 26.4802C14.6604 26.2447 15.1763 25.7683 15.8694 25.673C16.2334 25.6227 16.592 25.5182 16.9452 25.4149C18.0409 25.0941 17.1335 23.8587 16.0907 24.2689C14.4032 24.9423 15.1581 21.3883 15.4335 20.7303C15.4949 20.5834 15.5522 20.3055 15.4882 20.2618C14.9784 19.9052 14.276 20.4542 13.8045 20.6443C13.6059 20.725 13.3326 21.0611 13.2313 20.5305C13.2273 20.5066 12.898 20.4828 12.7701 20.5516C12.3662 20.77 12.0436 20.7078 11.6876 20.4286C11.2957 20.1215 11.2091 20.152 10.8438 20.4617C10.6048 20.6637 10.1138 21.2428 9.80401 20.8401C9.28577 20.1661 10.3727 19.7501 10.7825 19.448C10.9144 19.35 11.0184 19.2124 11.1344 19.0933C10.4215 18.9543 10.3215 18.162 10.7625 17.7514C10.5631 17.7166 10.2604 17.6981 9.9681 17.7659C9.832 17.7975 9.76797 17.6288 9.832 17.5913C11.2629 16.7543 13.3047 17.719 13.7925 19.2283C13.8445 19.3897 13.9152 19.579 14.0405 19.669C14.1499 19.7485 14.9325 19.5128 15.1123 19.5128C15.7095 19.5128 15.7441 19.5155 15.6815 18.912C15.4971 17.1365 18.6558 15.8499 19.9393 17.0501C20.1859 17.2817 20.4312 17.4127 20.7618 17.3597C21.8721 17.1847 23.0893 18.0799 24.0358 18.5521C24.2798 18.6738 24.501 18.7281 24.781 18.5931C25.4075 18.2914 26.0767 18.073 26.6899 17.7501C27.2498 17.4563 27.3405 17.0421 26.9166 16.5737C26.2642 15.8532 26.3899 13.9641 26.43 13.0099C26.6781 7.06352 15.9069 6.81058 11.8729 8.42186C9.91052 9.20416 9.41684 11.2115 8.81487 13.0125C8.37274 14.3344 8.57452 15.7565 8.54441 17.1296C8.54105 17.2827 8.45728 17.4246 8.3077 17.4572C8.11379 17.4995 7.93336 17.3535 7.88882 17.1601C7.75617 16.584 7.61721 15.8319 7.8284 15.3138C8.38199 13.9505 7.67087 12.7354 8.81487 11.0319C9.07882 10.6389 9.3521 9.63139 9.20013 9.17087C8.21391 6.19711 11.7632 4.95895 13.7819 3.77559C14.671 3.50145 15.2471 4.85011 15.7308 4.29699C16.4737 3.44491 19.7622 2.11676 20.4845 3.25022C20.8848 3.87619 22.1289 3.55637 22.2162 4.24009C22.2884 4.79594 22.918 5.03142 23.4279 4.97587C25.1983 4.77744 26.2518 6.66674 27.5311 7.608C28.1532 8.06686 28.9722 8.63978 29.7733 8.54757C30.2044 8.49641 30.2658 8.91275 29.9293 9.1047C29.2313 9.4979 29.4635 10.5807 30.3185 10.4558C30.7509 10.3929 31.1475 11.0647 30.7971 11.365C30.3817 11.7209 29.0201 10.4863 29.0201 10.4863C28.2697 9.76085 28.6446 11.1545 28.2083 11.4258C27.1491 12.0855 30.8651 14.681 29.776 12.2238C29.7137 12.0809 29.9107 11.9247 30.0226 12.0399C30.3559 12.3826 30.6851 12.5057 31.1157 12.1682C31.2877 12.0346 31.6303 12.294 31.6303 12.5957C31.6303 13.4969 31.6276 14.414 30.7718 15.0201C29.7567 15.7389 30.3423 17.8402 31.4676 18.118C32.1942 18.298 32.5114 18.7889 32.5927 19.5432C32.8462 21.8876 31.8618 24.2825 29.9666 25.7061C29.5187 26.0422 29.3094 26.4643 29.3774 27.0149C29.4862 27.8787 29.9022 28.9573 29.3667 29.7409C27.713 32.1661 24.5264 33.8256 22.2055 35.5253C20.7533 36.5887 19.955 37.0311 18.301 37.1887C17.5145 37.2615 16.9412 36.9214 16.4787 36.3259C16.0334 35.7525 15.4451 35.3861 14.8283 35.0118C13.2194 34.0334 12.0069 32.527 11.2459 30.826C11.2001 30.7236 11.2294 30.5754 11.3347 30.5367C11.427 30.5028 11.4995 30.5619 11.5564 30.6421C12.4387 31.8855 13.2148 33.4716 14.631 34.1583C16.3334 34.974 18.1263 34.2182 19.6913 33.351C24.0358 31.2339 22.3068 30.6593 23.5039 27.4092C24.2777 25.673 24.0358 22.8483 25.0436 21.8313C25.8036 21.0644 25.0875 19.2468 25.9354 18.826C25.8229 18.9776 25.1462 19.0573 24.9316 19.2045ZM22.4081 18.9954C23.113 18.7181 21.5545 18.1094 21.327 17.9592C21.0441 17.7729 19.6382 17.6475 19.6887 18.2583C19.7316 18.823 22.2602 19.0986 22.4068 18.9927L22.4081 18.9954Z" fill="#1B1A2C"/>
</svg>
